HIERARCHY
ROOT pelvis
{
  OFFSET 0 100 0
  CHANNELS 6 Xposition Yposition Zposition Zrotation Xrotation Yrotation
  JOINT pelvis_right_femur
  {
    OFFSET -10.78128 -3.44521 -0.5502486
    CHANNELS 3 Zrotation Xrotation Yrotation
    JOINT right_femur_tibia
    {
      OFFSET -0.8047443 -44.0398 -0.1307829
      CHANNELS 3 Zrotation Xrotation Yrotation
      JOINT right_tibia_foot
      {
        OFFSET 3.006224 -47.83518 -5
        CHANNELS 3 Zrotation Xrotation Yrotation
        End Site
        {
          OFFSET 0 -5 15
        }
      }
    }
  }
  JOINT pelvis_left_femur
  {
    OFFSET 10.78128 -3.44521 -0.5502486
    CHANNELS 3 Zrotation Xrotation Yrotation
    JOINT left_femur_tibia
    {
      OFFSET 0.8047443 -44.0398 -0.1307829
      CHANNELS 3 Zrotation Xrotation Yrotation
      JOINT left_tibia_foot
      {
        OFFSET -4.370144 -48.10324 -4.275266
        CHANNELS 3 Zrotation Xrotation Yrotation
        End Site
        {
          OFFSET 0 -5 15
        }
      }
    }
  }
  JOINT pelvis_spine1
  {
    OFFSET 0 6.468898 -3.129235
    CHANNELS 3 Zrotation Xrotation Yrotation
    JOINT spine1
    {
      OFFSET 0 23.15396 4.99043
      CHANNELS 3 Zrotation Xrotation Yrotation
      JOINT spine2
      {
        OFFSET 0 20.79997 -5.064912
        CHANNELS 3 Zrotation Xrotation Yrotation
        JOINT neck
        {
          OFFSET 0 14.38658 9.616178
          CHANNELS 3 Zrotation Xrotation Yrotation
          End Site
          {
            OFFSET 0 20 0
          }
        }
      }
      JOINT right_manubrium
      {
        OFFSET -5.722621 16.35077 3.967754
        CHANNELS 3 Zrotation Xrotation Yrotation
        JOINT right_clavicle
        {
          OFFSET -13.16364 1.694482 -4.693211
          CHANNELS 3 Zrotation Xrotation Yrotation
          JOINT right_humerus
          {
            OFFSET -28.5034 -0.3100689 -2.792744
            CHANNELS 3 Zrotation Xrotation Yrotation
            JOINT right_radius
            {
              OFFSET -25.15693 0.02248979 -1.271978
              CHANNELS 3 Zrotation Xrotation Yrotation
              End Site
              {
                OFFSET -15 0 0
              }
            }
          }
        }
      }
      JOINT left_manubrium
      {
        OFFSET 5.722621 16.35077 3.967754
        CHANNELS 3 Zrotation Xrotation Yrotation
        JOINT left_clavicle
        {
          OFFSET 13.16364 1.694482 -4.693211
          CHANNELS 3 Zrotation Xrotation Yrotation
          JOINT left_humerus
          {
            OFFSET 29.39168 -1.063119 -2.237045
            CHANNELS 3 Zrotation Xrotation Yrotation
            JOINT left_radius
            {
              OFFSET 24.59957 -0.9528479 0.9047498
              CHANNELS 3 Zrotation Xrotation Yrotation
              End Site
              {
                OFFSET 15 -0 -0
              }
            }
          }
        }
      }
    }
  }
}
MOTION
Frames: 13
Frame Time: 0.0416666666667
0 103.5113 0 2.39717 0.6876231 0.001268533 3.12413 -15.60054 11.42888 -0 38.72744 -0 -4.525708 -17.6197 -2.965793 -8.898697 8.340207 -22.10199 -0 4.475685 -0 22.18062 -9.126901 29.98203 -3.679454 -2.570857 5.652441 2.261879 10.59838 -6.919839 1.770996 21.91978 5.621773 2.426605 -25.04844 9.299338 5.109589 -21.59489 11.09721 86.3073 38.45918 -17.1904 -0 0 15.44694 -7.662353 7.879542 5.420616 5.032732 -19.06438 -2.907217 -90.44711 22.37633 20.62152 0 0 -17.79948 15.54132 12.20365 -2.554459
0.3505443 103.4778 1.650064 1.305548 1.135724 0.01611722 4.463099 -18.63087 11.61264 -0 39.43142 -0 -5.595006 -16.84375 -2.853264 -8.211536 8.285819 -22.43522 -0 5.262207 -0 21.95319 -9.769535 30.65495 -3.938878 -2.685856 5.45655 2.457714 10.37095 -7.043447 1.740487 21.95098 5.867458 2.388317 -25.33356 9.590497 5.276258 -21.64419 11.17365 86.14376 38.89054 -17.19838 -0 0 15.21485 -7.148357 7.731973 5.660234 4.97633 -18.85247 -2.923346 -89.79789 22.38617 19.79049 0 0 -18.88837 16.04302 11.92009 -2.844615
0.5859235 103.0637 4.103943 0.4587366 1.034983 0.1182467 5.039441 -24.48549 6.080875 -0 29.40027 -0 -7.172419 -11.19775 -1.244259 -7.056973 11.47421 -20.25879 -0 7.1943 -0 12.67756 -17.42566 25.39938 -3.508594 -2.260649 5.810426 2.019129 10.78324 -6.672476 1.687464 21.95193 5.575951 2.590435 -24.68123 8.938267 4.821884 -21.51727 11.12598 86.07021 38.07221 -16.375 -0 0 15.68697 -8.94777 8.182736 5.869321 4.978294 -19.09658 -2.794717 -90.74683 22.02664 21.11995 0 0 -16.53253 14.88711 11.98546 -2.256694
0.7962642 102.6308 6.689081 -0.317274 1.733043 0.2647031 5.963597 -27.07934 6.567366 -0 28.13906 -0 -7.136389 -10.20051 -1.522543 -6.399132 11.80747 -20.38578 -0 7.328598 -0 9.551903 -19.67502 24.48007 -3.043337 -1.876997 6.065892 1.685201 11.1718 -6.455464 1.639467 21.86315 5.390731 2.8218 -24.17716 8.40433 4.47983 -21.25318 11.11266 86.29863 37.19073 -16.19135 -0 0 15.83969 -10.33036 8.609027 5.828206 5.062727 -19.46968 -2.76119 -91.55036 21.71273 22.08785 0 0 -14.89657 13.81721 12.05842 -1.626157
0.9649862 102.1131 9.756133 -0.9517993 2.197332 0.4942714 6.628939 -30.28821 5.451666 -0 24.97333 -0 -7.955262 -7.678315 -1.091571 -5.83151 12.65165 -19.33397 -0 8.966712 -0 7.498043 -21.13507 22.55126 -2.762692 -1.709319 6.179701 1.558289 11.39975 -6.434113 1.619532 21.75647 5.288595 2.939943 -23.98103 8.151715 4.29687 -21.11023 11.11187 86.67761 36.68695 -16.48912 -0 0 15.82716 -10.81548 8.773845 5.542062 5.158176 -19.76078 -2.797436 -91.98365 21.4632 22.57317 0 0 -14.20792 13.42176 12.14875 -1.508727
1.09923 101.6091 13.28308 -1.62422 2.702999 0.825811 7.369097 -32.75681 4.952543 -0 22.72469 -0 -8.606989 -5.714376 -0.8773593 -5.249599 13.33384 -18.62184 -0 11.00156 -0 5.320597 -22.07386 20.74837 -2.620384 -1.690318 6.227408 1.545332 11.49377 -6.488718 1.625871 21.67707 5.213574 2.964903 -23.96324 8.071164 4.228811 -21.06782 11.09732 86.98766 36.48013 -16.88553 -0 0 15.79861 -10.76939 8.778528 5.192641 5.235661 -19.94956 -2.836971 -92.22644 21.36061 22.83155 0 0 -14.00944 13.39297 12.29875 -1.605072
1.190261 101.1943 17.39173 -2.245663 2.898868 1.238257 7.88982 -34.19568 4.053735 -0 20.62981 -0 -9.438616 -3.783774 -0.64743 -4.682521 14.1982 -17.72537 -0 14.47543 -0 2.751354 -22.17856 18.44291 -2.566694 -1.757171 6.259326 1.576532 11.52785 -6.56409 1.649553 21.62369 5.1311 2.92742 -24.01421 8.072714 4.203757 -21.12902 11.07315 87.24038 36.44526 -17.25855 -0 0 15.83492 -10.47005 8.677421 4.824865 5.289624 -20.05637 -2.878517 -92.38599 21.30623 23.03641 0 0 -13.98006 13.58804 12.47469 -1.866584
1.239724 100.9969 22.13002 -2.800703 2.764549 1.674864 8.220589 -33.98192 3.099106 -0 19.15248 -0 -10.16649 -2.411643 -0.6686517 -4.137539 14.99266 -16.76339 -0 19.63067 -0 -0.602325 -21.15856 15.69582 -2.563727 -1.874135 6.286655 1.62854 11.53008 -6.647078 1.684811 21.58605 5.038801 2.851084 -24.09177 8.116293 4.206801 -21.25171 11.04236 87.44991 36.49862 -17.60664 -0 0 15.92001 -10.03645 8.516655 4.455807 5.327597 -20.113 -2.923371 -92.50455 21.28738 23.22328 0 0 -14.03909 13.88961 12.6657 -2.19291
1.258888 101.1316 27.49658 -3.16686 2.245386 2.00811 8.360792 -31.65093 2.27982 -0 18.21969 -0 -10.41068 -1.739661 -1.085459 -3.705133 15.27516 -15.44984 -0 26.86866 -0 -4.43071 -18.4893 12.74482 -2.588502 -2.024241 6.317604 1.690932 11.52151 -6.738071 1.727337 21.55222 4.931814 2.747653 -24.17492 8.178167 4.219579 -21.42473 11.00859 87.65203 36.58997 -17.9553 -0 0 16.05084 -9.521585 8.310575 4.068676 5.357207 -20.14429 -2.977795 -92.60645 21.26766 23.42157 0 0 -14.1394 14.26309 12.8649 -2.57795
1.270578 101.6606 33.38824 -3.26213 1.442151 2.085184 8.435408 -27.4227 2.1212 -0 17.64267 -0 -9.693128 -1.718445 -1.912649 -3.411923 14.2328 -13.60183 -0 35.95626 -0 -7.874523 -14.1685 10.27631 -2.625701 -2.198008 6.355328 1.760156 11.50981 -6.838757 1.774355 21.51427 4.809659 2.624688 -24.25396 8.245205 4.237246 -21.63358 10.97335 87.85979 36.68752 -18.32256 -0 0 16.21905 -8.95188 8.070984 3.656605 5.384329 -20.16734 -3.043306 -92.70674 21.23868 23.64271 0 0 -14.26645 14.67481 13.07289 -2.994893
1.292066 102.5639 39.59086 -3.054509 0.3497669 1.798853 8.389921 -22.07601 2.750947 -0 17.14335 -0 -8.07761 -2.188424 -2.843584 -3.170797 11.14419 -11.44032 -0 46.03895 -0 -10.06684 -9.264167 9.003626 -2.667226 -2.390385 6.404549 1.833199 11.50108 -6.949774 1.823283 21.46701 4.669808 2.485419 -24.32006 8.307036 4.252499 -21.87781 10.93853 88.08181 36.77233 -18.71329 -0 0 16.42956 -8.346225 7.800688 3.214455 5.41124 -20.19134 -3.12193 -92.81459 21.18381 23.90177 0 0 -14.40349 15.11213 13.28751 -3.441545
1.322484 103.7749 45.79579 -2.522332 -1.088509 1.184316 7.933648 -16.22713 3.580607 -0 16.39389 -0 -6.4633 -3.392828 -3.402647 -2.929319 5.891131 -9.702997 -0 55.58123 -0 -10.92215 -5.570506 9.050753 -2.709915 -2.598745 6.46811 1.908516 11.4969 -7.070572 1.87207 21.40829 4.511386 2.331118 -24.36674 8.357304 4.262848 -22.15781 10.90553 88.31541 36.83497 -19.12236 -0 0 16.68721 -7.717509 7.501569 2.74602 5.437853 -20.21954 -3.214245 -92.93286 21.09563 24.20604 0 0 -14.54377 15.56365 13.50614 -3.909211
1.353212 105.1769 51.72864 -1.640633 -2.622029 0.4464988 6.879383 -10.16351 3.892302 -0 14.94333 -0 -5.743131 -5.490926 -3.304662 -2.79442 -0.9073872 -8.823567 -0 62.47008 -0 -10.73989 -4.088062 9.883709 -2.754363 -2.82208 6.548387 1.985157 11.49787 -7.200375 1.918733 21.33742 4.333232 2.161114 -24.38773 8.391266 4.266391 -22.47866 10.87612 88.5552 36.87249 -19.53924 -0 0 16.99966 -7.075308 7.172691 2.258335 5.46197 -20.25111 -3.321629 -93.05901 20.96497 24.56025 0 0 -14.6838 16.02515 13.72365 -4.39622
